<svg xmlns="http://www.w3.org/2000/svg" viewBox="0 0 600 350" width="100%" height="100%">
  <defs>
    <linearGradient id="secBg" x1="0%" y1="0%" x2="100%" y2="100%">
      <stop offset="0%" stop-color="#ecfdf5"/>
      <stop offset="100%" stop-color="#d1fae5"/>
    </linearGradient>
    <linearGradient id="secGrad" x1="0%" y1="0%" x2="100%" y2="0%">
      <stop offset="0%" stop-color="#10b981"/>
      <stop offset="100%" stop-color="#059669"/>
    </linearGradient>
  </defs>
  <rect width="600" height="350" fill="url(#secBg)"/>
  <circle cx="500" cy="70" r="140" fill="rgba(16, 185, 129, 0.08)"/>
  
  <g transform="translate(60, 80)">
    <rect x="0" y="0" width="480" height="190" rx="16" fill="#ffffff" stroke="rgba(16, 185, 129, 0.3)" stroke-width="2" filter="drop-shadow(0 4px 12px rgba(0,0,0,0.06))"/>
    <rect x="30" y="35" width="70" height="70" rx="14" fill="url(#secGrad)"/>
    
    <!-- Shield Path -->
    <path d="M65 48 L80 55 V72 C80 82 65 90 65 90 C65 90 50 82 50 72 V55 Z" fill="none" stroke="#ffffff" stroke-width="4"/>
    
    <text x="120" y="65" font-family="'Poppins', sans-serif" font-size="22" font-weight="700" fill="#0f172a">Cybersecurity</text>
    <text x="120" y="92" font-family="'Plus Jakarta Sans', sans-serif" font-size="14" fill="#64748b">Ethical Hacking • SIEM • Threat Defense</text>
    
    <rect x="30" y="130" width="150" height="32" rx="16" fill="rgba(16, 185, 129, 0.12)"/>
    <text x="105" y="151" font-family="'Poppins', sans-serif" font-size="12" font-weight="700" fill="#059669" text-anchor="middle">Network Security</text>
    
    <rect x="195" y="130" width="140" height="32" rx="16" fill="rgba(245, 158, 11, 0.12)"/>
    <text x="265" y="151" font-family="'Poppins', sans-serif" font-size="12" font-weight="700" fill="#d97706" text-anchor="middle">SOC Auditing</text>
  </g>
  <rect x="0" y="344" width="600" height="6" fill="url(#secGrad)"/>
</svg>