<svg xmlns="http://www.w3.org/2000/svg" viewBox="0 0 600 350" width="100%" height="100%">
  <defs>
    <linearGradient id="dataBg" x1="0%" y1="0%" x2="100%" y2="100%">
      <stop offset="0%" stop-color="#faf5ff"/>
      <stop offset="100%" stop-color="#f3e8ff"/>
    </linearGradient>
    <linearGradient id="dataGrad" x1="0%" y1="0%" x2="100%" y2="0%">
      <stop offset="0%" stop-color="#9333ea"/>
      <stop offset="100%" stop-color="#7e22ce"/>
    </linearGradient>
  </defs>
  <rect width="600" height="350" fill="url(#dataBg)"/>
  <circle cx="500" cy="70" r="140" fill="rgba(147, 51, 234, 0.08)"/>
  
  <g transform="translate(60, 80)">
    <rect x="0" y="0" width="480" height="190" rx="16" fill="#ffffff" stroke="rgba(147, 51, 234, 0.3)" stroke-width="2" filter="drop-shadow(0 4px 12px rgba(0,0,0,0.06))"/>
    <rect x="30" y="35" width="70" height="70" rx="14" fill="url(#dataGrad)"/>
    
    <!-- Bar Chart Icons -->
    <rect x="45" y="70" width="8" height="20" fill="#ffffff" rx="2"/>
    <rect x="58" y="58" width="8" height="32" fill="#ffffff" rx="2"/>
    <rect x="71" y="48" width="8" height="42" fill="#ffffff" rx="2"/>
    
    <text x="120" y="65" font-family="'Poppins', sans-serif" font-size="22" font-weight="700" fill="#0f172a">Data Analytics</text>
    <text x="120" y="92" font-family="'Plus Jakarta Sans', sans-serif" font-size="14" fill="#64748b">SQL • Python Pandas • Power BI • Dashboards</text>
    
    <rect x="30" y="130" width="150" height="32" rx="16" fill="rgba(147, 51, 234, 0.12)"/>
    <text x="105" y="151" font-family="'Poppins', sans-serif" font-size="12" font-weight="700" fill="#9333ea" text-anchor="middle">Business Intelligence</text>
    
    <rect x="195" y="130" width="140" height="32" rx="16" fill="rgba(13, 110, 253, 0.12)"/>
    <text x="265" y="151" font-family="'Poppins', sans-serif" font-size="12" font-weight="700" fill="#0d6efd" text-anchor="middle">Data Pipeline</text>
  </g>
  <rect x="0" y="344" width="600" height="6" fill="url(#dataGrad)"/>
</svg>