<svg xmlns="http://www.w3.org/2000/svg" viewBox="0 0 600 350" width="100%" height="100%">
  <defs>
    <linearGradient id="devopsBg" x1="0%" y1="0%" x2="100%" y2="100%">
      <stop offset="0%" stop-color="#f5f3ff"/>
      <stop offset="100%" stop-color="#ede9fe"/>
    </linearGradient>
    <linearGradient id="devopsGrad" x1="0%" y1="0%" x2="100%" y2="0%">
      <stop offset="0%" stop-color="#0d6efd"/>
      <stop offset="100%" stop-color="#8154a2"/>
    </linearGradient>
  </defs>
  <rect width="600" height="350" fill="url(#devopsBg)"/>
  <circle cx="500" cy="70" r="140" fill="rgba(129, 84, 162, 0.08)"/>
  
  <g transform="translate(60, 80)">
    <rect x="0" y="0" width="480" height="190" rx="16" fill="#ffffff" stroke="rgba(129, 84, 162, 0.3)" stroke-width="2" filter="drop-shadow(0 4px 12px rgba(0,0,0,0.06))"/>
    <rect x="30" y="35" width="70" height="70" rx="14" fill="url(#devopsGrad)"/>
    
    <!-- Infinity Path -->
    <path d="M50 70 C50 60 60 60 65 70 C70 80 80 80 80 70 C80 60 70 60 65 70 C60 80 50 80 50 70 Z" fill="none" stroke="#ffffff" stroke-width="4"/>
    
    <text x="120" y="65" font-family="'Poppins', sans-serif" font-size="22" font-weight="700" fill="#0f172a">DevOps Engineering</text>
    <text x="120" y="92" font-family="'Plus Jakarta Sans', sans-serif" font-size="14" fill="#64748b">Git • Jenkins • Terraform • Ansible • CI/CD</text>
    
    <rect x="30" y="130" width="140" height="32" rx="16" fill="rgba(13, 110, 253, 0.12)"/>
    <text x="100" y="151" font-family="'Poppins', sans-serif" font-size="12" font-weight="700" fill="#0d6efd" text-anchor="middle">CI/CD Automation</text>
    
    <rect x="185" y="130" width="150" height="32" rx="16" fill="rgba(129, 84, 162, 0.12)"/>
    <text x="260" y="151" font-family="'Poppins', sans-serif" font-size="12" font-weight="700" fill="#8154a2" text-anchor="middle">Infrastructure as Code</text>
  </g>
  <rect x="0" y="344" width="600" height="6" fill="url(#devopsGrad)"/>
</svg>