<svg xmlns="http://www.w3.org/2000/svg" viewBox="0 0 600 350" width="100%" height="100%">
  <defs>
    <linearGradient id="k8sBg" x1="0%" y1="0%" x2="100%" y2="100%">
      <stop offset="0%" stop-color="#f0f9ff"/>
      <stop offset="100%" stop-color="#e0f2fe"/>
    </linearGradient>
    <linearGradient id="k8sGrad" x1="0%" y1="0%" x2="100%" y2="0%">
      <stop offset="0%" stop-color="#0284c7"/>
      <stop offset="100%" stop-color="#0369a1"/>
    </linearGradient>
  </defs>
  <rect width="600" height="350" fill="url(#k8sBg)"/>
  <circle cx="500" cy="70" r="140" fill="rgba(2, 132, 199, 0.08)"/>
  
  <g transform="translate(60, 80)">
    <rect x="0" y="0" width="480" height="190" rx="16" fill="#ffffff" stroke="rgba(2, 132, 199, 0.3)" stroke-width="2" filter="drop-shadow(0 4px 12px rgba(0,0,0,0.06))"/>
    <rect x="30" y="35" width="70" height="70" rx="14" fill="url(#k8sGrad)"/>
    
    <!-- Docker Container Icon -->
    <rect x="46" y="65" width="10" height="10" fill="#ffffff" rx="1"/>
    <rect x="58" y="65" width="10" height="10" fill="#ffffff" rx="1"/>
    <rect x="70" y="65" width="10" height="10" fill="#ffffff" rx="1"/>
    <rect x="58" y="53" width="10" height="10" fill="#ffffff" rx="1"/>
    
    <text x="120" y="65" font-family="'Poppins', sans-serif" font-size="22" font-weight="700" fill="#0f172a">Docker &amp; Kubernetes</text>
    <text x="120" y="92" font-family="'Plus Jakarta Sans', sans-serif" font-size="14" fill="#64748b">Microservices • Container Cluster • CKA</text>
    
    <rect x="30" y="130" width="160" height="32" rx="16" fill="rgba(2, 132, 199, 0.12)"/>
    <text x="110" y="151" font-family="'Poppins', sans-serif" font-size="12" font-weight="700" fill="#0284c7" text-anchor="middle">Container Orchestration</text>
    
    <rect x="205" y="130" width="130" height="32" rx="16" fill="rgba(13, 110, 253, 0.12)"/>
    <text x="270" y="151" font-family="'Poppins', sans-serif" font-size="12" font-weight="700" fill="#0d6efd" text-anchor="middle">CKA Prep</text>
  </g>
  <rect x="0" y="344" width="600" height="6" fill="url(#k8sGrad)"/>
</svg>