<svg xmlns="http://www.w3.org/2000/svg" viewBox="0 0 600 350" width="100%" height="100%">
  <defs>
    <linearGradient id="supBg" x1="0%" y1="0%" x2="100%" y2="100%">
      <stop offset="0%" stop-color="#fffbe6"/>
      <stop offset="100%" stop-color="#fef3c7"/>
    </linearGradient>
    <linearGradient id="supGrad" x1="0%" y1="0%" x2="100%" y2="0%">
      <stop offset="0%" stop-color="#d97706"/>
      <stop offset="100%" stop-color="#b45309"/>
    </linearGradient>
  </defs>
  <rect width="600" height="350" fill="url(#supBg)"/>
  <circle cx="500" cy="70" r="140" fill="rgba(217, 119, 6, 0.08)"/>
  
  <g transform="translate(60, 80)">
    <rect x="0" y="0" width="480" height="190" rx="16" fill="#ffffff" stroke="rgba(217, 119, 6, 0.3)" stroke-width="2" filter="drop-shadow(0 4px 12px rgba(0,0,0,0.06))"/>
    <rect x="30" y="35" width="70" height="70" rx="14" fill="url(#supGrad)"/>
    
    <!-- Helpdesk Icon -->
    <circle cx="65" cy="70" r="15" fill="none" stroke="#ffffff" stroke-width="3"/>
    <path d="M50 70 A15 15 0 0 1 80 70" fill="none" stroke="#ffffff" stroke-width="3"/>
    
    <text x="120" y="65" font-family="'Poppins', sans-serif" font-size="22" font-weight="700" fill="#0f172a">IT Support Fundamentals</text>
    <text x="120" y="92" font-family="'Plus Jakarta Sans', sans-serif" font-size="14" fill="#64748b">Hardware • Networking • Desktop Support</text>
    
    <rect x="30" y="130" width="140" height="32" rx="16" fill="rgba(217, 119, 6, 0.12)"/>
    <text x="100" y="151" font-family="'Poppins', sans-serif" font-size="12" font-weight="700" fill="#b45309" text-anchor="middle">CompTIA A+ Prep</text>
    
    <rect x="185" y="130" width="140" height="32" rx="16" fill="rgba(13, 110, 253, 0.12)"/>
    <text x="255" y="151" font-family="'Poppins', sans-serif" font-size="12" font-weight="700" fill="#0d6efd" text-anchor="middle">Helpdesk Skills</text>
  </g>
  <rect x="0" y="344" width="600" height="6" fill="url(#supGrad)"/>
</svg>