<svg xmlns="http://www.w3.org/2000/svg" viewBox="0 0 600 350" width="100%" height="100%">
  <defs>
    <linearGradient id="pDbBg" x1="0%" y1="0%" x2="100%" y2="100%">
      <stop offset="0%" stop-color="#eff6ff"/>
      <stop offset="100%" stop-color="#dbeafe"/>
    </linearGradient>
    <linearGradient id="pDbGrad" x1="0%" y1="0%" x2="100%" y2="0%">
      <stop offset="0%" stop-color="#2563eb"/>
      <stop offset="100%" stop-color="#1d4ed8"/>
    </linearGradient>
  </defs>
  <rect width="600" height="350" fill="url(#pDbBg)"/>
  <circle cx="500" cy="70" r="140" fill="rgba(37, 99, 235, 0.08)"/>
  
  <g transform="translate(60, 80)">
    <rect x="0" y="0" width="480" height="190" rx="16" fill="#ffffff" stroke="rgba(37, 99, 235, 0.3)" stroke-width="2" filter="drop-shadow(0 4px 12px rgba(0,0,0,0.06))"/>
    <rect x="30" y="35" width="70" height="70" rx="14" fill="url(#pDbGrad)"/>
    
    <!-- Database Stack Icon -->
    <ellipse cx="65" cy="53" rx="18" ry="6" fill="none" stroke="#ffffff" stroke-width="3"/>
    <path d="M47 53 V67 C47 70 55 73 65 73 C75 73 83 70 83 67 V53" fill="none" stroke="#ffffff" stroke-width="3"/>
    <path d="M47 67 V81 C47 84 55 87 65 87 C75 87 83 84 83 81 V67" fill="none" stroke="#ffffff" stroke-width="3"/>
    
    <text x="120" y="65" font-family="'Poppins', sans-serif" font-size="20" font-weight="700" fill="#0f172a">High-Availability DB Cluster</text>
    <text x="120" y="92" font-family="'Plus Jakarta Sans', sans-serif" font-size="14" fill="#64748b">Logistics &amp; Supply Chain • MySQL Galera</text>
    
    <rect x="30" y="130" width="160" height="32" rx="16" fill="rgba(37, 99, 235, 0.12)"/>
    <text x="110" y="151" font-family="'Poppins', sans-serif" font-size="12" font-weight="700" fill="#2563eb" text-anchor="middle">Multi-Master Galera</text>
    
    <rect x="205" y="130" width="140" height="32" rx="16" fill="rgba(16, 185, 129, 0.12)"/>
    <text x="275" y="151" font-family="'Poppins', sans-serif" font-size="12" font-weight="700" fill="#10b981" text-anchor="middle">ProxySQL Failover</text>
  </g>
  <rect x="0" y="344" width="600" height="6" fill="url(#pDbGrad)"/>
</svg>