<svg xmlns="http://www.w3.org/2000/svg" viewBox="0 0 600 350" width="100%" height="100%">
  <defs>
    <linearGradient id="pEduBg" x1="0%" y1="0%" x2="100%" y2="100%">
      <stop offset="0%" stop-color="#fffbe6"/>
      <stop offset="100%" stop-color="#fef3c7"/>
    </linearGradient>
    <linearGradient id="pEduGrad" x1="0%" y1="0%" x2="100%" y2="0%">
      <stop offset="0%" stop-color="#d97706"/>
      <stop offset="100%" stop-color="#b45309"/>
    </linearGradient>
  </defs>
  <rect width="600" height="350" fill="url(#pEduBg)"/>
  <circle cx="500" cy="70" r="140" fill="rgba(217, 119, 6, 0.08)"/>
  
  <g transform="translate(60, 80)">
    <rect x="0" y="0" width="480" height="190" rx="16" fill="#ffffff" stroke="rgba(217, 119, 6, 0.3)" stroke-width="2" filter="drop-shadow(0 4px 12px rgba(0,0,0,0.06))"/>
    <rect x="30" y="35" width="70" height="70" rx="14" fill="url(#pEduGrad)"/>
    
    <!-- Graduation Cap Icon -->
    <path d="M65 48 L45 58 L65 68 L85 58 Z M53 63 V75 C53 78 77 78 77 75 V63" stroke="#ffffff" stroke-width="3" fill="none"/>
    
    <text x="120" y="65" font-family="'Poppins', sans-serif" font-size="20" font-weight="700" fill="#0f172a">Higher Ed LMS Modernization</text>
    <text x="120" y="92" font-family="'Plus Jakarta Sans', sans-serif" font-size="14" fill="#64748b">Education • Serverless Microservices</text>
    
    <rect x="30" y="130" width="160" height="32" rx="16" fill="rgba(217, 119, 6, 0.12)"/>
    <text x="110" y="151" font-family="'Poppins', sans-serif" font-size="12" font-weight="700" fill="#b45309" text-anchor="middle">25k Active Students</text>
    
    <rect x="205" y="130" width="140" height="32" rx="16" fill="rgba(16, 185, 129, 0.12)"/>
    <text x="275" y="151" font-family="'Poppins', sans-serif" font-size="12" font-weight="700" fill="#10b981" text-anchor="middle">65% Cost Reduction</text>
  </g>
  <rect x="0" y="344" width="600" height="6" fill="url(#pEduGrad)"/>
</svg>