<svg xmlns="http://www.w3.org/2000/svg" viewBox="0 0 600 350" width="100%" height="100%">
  <defs>
    <linearGradient id="pBiBg" x1="0%" y1="0%" x2="100%" y2="100%">
      <stop offset="0%" stop-color="#faf5ff"/>
      <stop offset="100%" stop-color="#f3e8ff"/>
    </linearGradient>
    <linearGradient id="pBiGrad" x1="0%" y1="0%" x2="100%" y2="0%">
      <stop offset="0%" stop-color="#9333ea"/>
      <stop offset="100%" stop-color="#7e22ce"/>
    </linearGradient>
  </defs>
  <rect width="600" height="350" fill="url(#pBiBg)"/>
  <circle cx="500" cy="70" r="140" fill="rgba(147, 51, 234, 0.08)"/>
  
  <g transform="translate(60, 80)">
    <rect x="0" y="0" width="480" height="190" rx="16" fill="#ffffff" stroke="rgba(147, 51, 234, 0.3)" stroke-width="2" filter="drop-shadow(0 4px 12px rgba(0,0,0,0.06))"/>
    <rect x="30" y="35" width="70" height="70" rx="14" fill="url(#pBiGrad)"/>
    
    <!-- Analytics Chart Icon -->
    <path d="M48 80 L60 62 L70 70 L84 50" stroke="#ffffff" stroke-width="3" fill="none"/>
    <circle cx="84" cy="50" r="3" fill="#ffffff"/>
    
    <text x="120" y="65" font-family="'Poppins', sans-serif" font-size="20" font-weight="700" fill="#0f172a">Manufacturing BI Analytics</text>
    <text x="120" y="92" font-family="'Plus Jakarta Sans', sans-serif" font-size="14" fill="#64748b">Manufacturing • Real-time Executive Dashboards</text>
    
    <rect x="30" y="130" width="160" height="32" rx="16" fill="rgba(147, 51, 234, 0.12)"/>
    <text x="110" y="151" font-family="'Poppins', sans-serif" font-size="12" font-weight="700" fill="#9333ea" text-anchor="middle">Airflow ETL Pipelines</text>
    
    <rect x="205" y="130" width="140" height="32" rx="16" fill="rgba(13, 110, 253, 0.12)"/>
    <text x="275" y="151" font-family="'Poppins', sans-serif" font-size="12" font-weight="700" fill="#0d6efd" text-anchor="middle">Power BI Analytics</text>
  </g>
  <rect x="0" y="344" width="600" height="6" fill="url(#pBiGrad)"/>
</svg>