<svg xmlns="http://www.w3.org/2000/svg" viewBox="0 0 600 350" width="100%" height="100%">
  <defs>
    <linearGradient id="pSecBg" x1="0%" y1="0%" x2="100%" y2="100%">
      <stop offset="0%" stop-color="#ecfdf5"/>
      <stop offset="100%" stop-color="#d1fae5"/>
    </linearGradient>
    <linearGradient id="pSecGrad" x1="0%" y1="0%" x2="100%" y2="0%">
      <stop offset="0%" stop-color="#059669"/>
      <stop offset="100%" stop-color="#047857"/>
    </linearGradient>
  </defs>
  <rect width="600" height="350" fill="url(#pSecBg)"/>
  <circle cx="500" cy="70" r="140" fill="rgba(5, 150, 105, 0.08)"/>
  
  <g transform="translate(60, 80)">
    <rect x="0" y="0" width="480" height="190" rx="16" fill="#ffffff" stroke="rgba(5, 150, 105, 0.3)" stroke-width="2" filter="drop-shadow(0 4px 12px rgba(0,0,0,0.06))"/>
    <rect x="30" y="35" width="70" height="70" rx="14" fill="url(#pSecGrad)"/>
    
    <!-- Lock / Security Shield Icon -->
    <rect x="53" y="63" width="24" height="18" rx="3" fill="none" stroke="#ffffff" stroke-width="3"/>
    <path d="M58 63 V55 C58 50 72 50 72 55 V63" fill="none" stroke="#ffffff" stroke-width="3"/>
    
    <text x="120" y="65" font-family="'Poppins', sans-serif" font-size="20" font-weight="700" fill="#0f172a">FinTech Security Hardening</text>
    <text x="120" y="92" font-family="'Plus Jakarta Sans', sans-serif" font-size="14" fill="#64748b">Financial Services • Wazuh SIEM &amp; IDS</text>
    
    <rect x="30" y="130" width="160" height="32" rx="16" fill="rgba(5, 150, 105, 0.12)"/>
    <text x="110" y="151" font-family="'Poppins', sans-serif" font-size="12" font-weight="700" fill="#047857" text-anchor="middle">30+ Vulns Remediated</text>
    
    <rect x="205" y="130" width="140" height="32" rx="16" fill="rgba(245, 158, 11, 0.12)"/>
    <text x="275" y="151" font-family="'Poppins', sans-serif" font-size="12" font-weight="700" fill="#d97706" text-anchor="middle">PCI-DSS Audit</text>
  </g>
  <rect x="0" y="344" width="600" height="6" fill="url(#pSecGrad)"/>
</svg>