<svg xmlns="http://www.w3.org/2000/svg" viewBox="0 0 600 350" width="100%" height="100%">
  <defs>
    <linearGradient id="pManBg" x1="0%" y1="0%" x2="100%" y2="100%">
      <stop offset="0%" stop-color="#f8fafc"/>
      <stop offset="100%" stop-color="#f1f5f9"/>
    </linearGradient>
    <linearGradient id="pManGrad" x1="0%" y1="0%" x2="100%" y2="0%">
      <stop offset="0%" stop-color="#0f172a"/>
      <stop offset="100%" stop-color="#334155"/>
    </linearGradient>
  </defs>
  <rect width="600" height="350" fill="url(#pManBg)"/>
  <circle cx="500" cy="70" r="140" fill="rgba(15, 23, 42, 0.06)"/>
  
  <g transform="translate(60, 80)">
    <rect x="0" y="0" width="480" height="190" rx="16" fill="#ffffff" stroke="rgba(15, 23, 42, 0.2)" stroke-width="2" filter="drop-shadow(0 4px 12px rgba(0,0,0,0.06))"/>
    <rect x="30" y="35" width="70" height="70" rx="14" fill="url(#pManGrad)"/>
    
    <!-- Headset / Support Icon -->
    <path d="M48 68 C48 55 56 48 65 48 C74 48 82 55 82 68 V76 H76 V68 H82 M48 76 H54 V68 H48" stroke="#ffffff" stroke-width="3" fill="none"/>
    
    <text x="120" y="65" font-family="'Poppins', sans-serif" font-size="20" font-weight="700" fill="#0f172a">24/7 Managed IT Support</text>
    <text x="120" y="92" font-family="'Plus Jakarta Sans', sans-serif" font-size="14" fill="#64748b">Energy &amp; Utilities • Remote Grid Monitoring</text>
    
    <rect x="30" y="130" width="160" height="32" rx="16" fill="rgba(15, 23, 42, 0.1)"/>
    <text x="110" y="151" font-family="'Poppins', sans-serif" font-size="12" font-weight="700" fill="#0f172a" text-anchor="middle">24/7 Monitoring</text>
    
    <rect x="205" y="130" width="140" height="32" rx="16" fill="rgba(16, 185, 129, 0.12)"/>
    <text x="275" y="151" font-family="'Poppins', sans-serif" font-size="12" font-weight="700" fill="#10b981" text-anchor="middle">99.98% Uptime SLA</text>
  </g>
  <rect x="0" y="344" width="600" height="6" fill="url(#pManGrad)"/>
</svg>