<svg xmlns="http://www.w3.org/2000/svg" viewBox="0 0 600 350" width="100%" height="100%">
  <defs>
    <linearGradient id="pTelBg" x1="0%" y1="0%" x2="100%" y2="100%">
      <stop offset="0%" stop-color="#f0f9ff"/>
      <stop offset="100%" stop-color="#e0f2fe"/>
    </linearGradient>
    <linearGradient id="pTelGrad" x1="0%" y1="0%" x2="100%" y2="0%">
      <stop offset="0%" stop-color="#0284c7"/>
      <stop offset="100%" stop-color="#0d6efd"/>
    </linearGradient>
  </defs>
  <rect width="600" height="350" fill="url(#pTelBg)"/>
  <circle cx="500" cy="70" r="140" fill="rgba(2, 132, 199, 0.08)"/>
  
  <g transform="translate(60, 80)">
    <rect x="0" y="0" width="480" height="190" rx="16" fill="#ffffff" stroke="rgba(2, 132, 199, 0.3)" stroke-width="2" filter="drop-shadow(0 4px 12px rgba(0,0,0,0.06))"/>
    <rect x="30" y="35" width="70" height="70" rx="14" fill="url(#pTelGrad)"/>
    
    <!-- Dish / Signal Icon -->
    <path d="M50 78 C50 65 65 50 78 50 C80 50 82 52 80 55 C70 65 65 70 55 80 Z" fill="#ffffff"/>
    <circle cx="75" cy="55" r="4" fill="#ffffff"/>
    
    <text x="120" y="65" font-family="'Poppins', sans-serif" font-size="20" font-weight="700" fill="#0f172a">Telecom Infra Modernization</text>
    <text x="120" y="92" font-family="'Plus Jakarta Sans', sans-serif" font-size="14" fill="#64748b">Telecommunications • Virtualisation &amp; SAN</text>
    
    <rect x="30" y="130" width="160" height="32" rx="16" fill="rgba(2, 132, 199, 0.12)"/>
    <text x="110" y="151" font-family="'Poppins', sans-serif" font-size="12" font-weight="700" fill="#0284c7" text-anchor="middle">KVM / GlusterFS</text>
    
    <rect x="205" y="130" width="140" height="32" rx="16" fill="rgba(16, 185, 129, 0.12)"/>
    <text x="275" y="151" font-family="'Poppins', sans-serif" font-size="12" font-weight="700" fill="#10b981" text-anchor="middle">99.999% Availability</text>
  </g>
  <rect x="0" y="344" width="600" height="6" fill="url(#pTelGrad)"/>
</svg>