<svg xmlns="http://www.w3.org/2000/svg" viewBox="0 0 600 350" width="100%" height="100%">
  <defs>
    <linearGradient id="pRetBg" x1="0%" y1="0%" x2="100%" y2="100%">
      <stop offset="0%" stop-color="#eff6ff"/>
      <stop offset="100%" stop-color="#dbeafe"/>
    </linearGradient>
    <linearGradient id="pRetGrad" x1="0%" y1="0%" x2="100%" y2="0%">
      <stop offset="0%" stop-color="#2563eb"/>
      <stop offset="100%" stop-color="#1d4ed8"/>
    </linearGradient>
  </defs>
  <rect width="600" height="350" fill="url(#pRetBg)"/>
  <circle cx="500" cy="70" r="140" fill="rgba(37, 99, 235, 0.08)"/>
  
  <g transform="translate(60, 80)">
    <rect x="0" y="0" width="480" height="190" rx="16" fill="#ffffff" stroke="rgba(37, 99, 235, 0.3)" stroke-width="2" filter="drop-shadow(0 4px 12px rgba(0,0,0,0.06))"/>
    <rect x="30" y="35" width="70" height="70" rx="14" fill="url(#pRetGrad)"/>
    
    <!-- Shopping Bag / Cart Icon -->
    <path d="M50 58 H80 V80 C80 83 77 85 74 85 H56 C53 85 50 83 50 80 Z M58 58 V52 C58 48 72 48 72 52 V58" fill="none" stroke="#ffffff" stroke-width="3"/>
    
    <text x="120" y="65" font-family="'Poppins', sans-serif" font-size="20" font-weight="700" fill="#0f172a">Retail E-Commerce Platform</text>
    <text x="120" y="92" font-family="'Plus Jakarta Sans', sans-serif" font-size="14" fill="#64748b">Retail &amp; E-Commerce • Microservices</text>
    
    <rect x="30" y="130" width="160" height="32" rx="16" fill="rgba(37, 99, 235, 0.12)"/>
    <text x="110" y="151" font-family="'Poppins', sans-serif" font-size="12" font-weight="700" fill="#2563eb" text-anchor="middle">Real-Time Inventory</text>
    
    <rect x="205" y="130" width="140" height="32" rx="16" fill="rgba(129, 84, 162, 0.12)"/>
    <text x="275" y="151" font-family="'Poppins', sans-serif" font-size="12" font-weight="700" fill="#8154a2" text-anchor="middle">Redis &amp; NGINX</text>
  </g>
  <rect x="0" y="344" width="600" height="6" fill="url(#pRetGrad)"/>
</svg>