<svg xmlns="http://www.w3.org/2000/svg" viewBox="0 0 600 350" width="100%" height="100%">
  <defs>
    <linearGradient id="pCloudBg" x1="0%" y1="0%" x2="100%" y2="100%">
      <stop offset="0%" stop-color="#eff6ff"/>
      <stop offset="100%" stop-color="#dbeafe"/>
    </linearGradient>
    <linearGradient id="pCloudGrad" x1="0%" y1="0%" x2="100%" y2="0%">
      <stop offset="0%" stop-color="#0d6efd"/>
      <stop offset="100%" stop-color="#0284c7"/>
    </linearGradient>
  </defs>
  <rect width="600" height="350" fill="url(#pCloudBg)"/>
  <circle cx="500" cy="70" r="140" fill="rgba(13, 110, 253, 0.08)"/>
  
  <g transform="translate(60, 80)">
    <rect x="0" y="0" width="480" height="190" rx="16" fill="#ffffff" stroke="rgba(13, 110, 253, 0.3)" stroke-width="2" filter="drop-shadow(0 4px 12px rgba(0,0,0,0.06))"/>
    <rect x="30" y="35" width="70" height="70" rx="14" fill="url(#pCloudGrad)"/>
    <path d="M65 55 C55 55 48 62 48 70 C48 78 55 85 65 85 C73 85 80 80 82 73 C87 73 90 69 90 64 C90 59 86 55 81 55 C79 50 72 46 65 55 Z" fill="#ffffff"/>
    
    <text x="120" y="65" font-family="'Poppins', sans-serif" font-size="20" font-weight="700" fill="#0f172a">AWS Cloud Migration</text>
    <text x="120" y="92" font-family="'Plus Jakarta Sans', sans-serif" font-size="14" fill="#64748b">Financial Services • Zero-Downtime</text>
    
    <rect x="30" y="130" width="160" height="32" rx="16" fill="rgba(13, 110, 253, 0.12)"/>
    <text x="110" y="151" font-family="'Poppins', sans-serif" font-size="12" font-weight="700" fill="#0d6efd" text-anchor="middle">45+ Microservices</text>
    
    <rect x="205" y="130" width="140" height="32" rx="16" fill="rgba(16, 185, 129, 0.12)"/>
    <text x="275" y="151" font-family="'Poppins', sans-serif" font-size="12" font-weight="700" fill="#10b981" text-anchor="middle">99.99% SLA</text>
  </g>
  <rect x="0" y="344" width="600" height="6" fill="url(#pCloudGrad)"/>
</svg>